# xmcd
# 
# Track frame offsets:
#     150
#     21920
#     43637
#     63872
#     80630
#     104150
#     126497
#     147995
#     169210
#     191447
#     207577
#     234945
#     251547
# 
# Disc length: 3712
# 
# Revision: 30
# Processed by: cddbd v1.5.2PL0 Copyright (c) Steve Scherf et al.
# Submitted via: fre:ac v1.0.31
# 
DISCID=bf0e7e0d
DTITLE=大黒摩季 - MAKI OHGURO BEST OF BEST ?All Singles Collection? [Disc 2]
DYEAR=1999
DGENRE=JPop
TTITLE0=??????????
TTITLE1=?????
TTITLE2=??
TTITLE3=????
TTITLE4=??????
TTITLE5=??????
TTITLE6=?
TTITLE7=??! ??????
TTITLE8=????????? ??? ??????????
TTITLE9=???????
TTITLE10=BRAND-NEW DAY
TTITLE11=???? (Live Version)
TTITLE12=????? (Live Version)
EXTD=YEAR: 1999
EXTT0=
EXTT1=
EXTT2=
EXTT3=
EXTT4=
EXTT5=
EXTT6=
EXTT7=
EXTT8=
EXTT9=
EXTT10=
EXTT11=
EXTT12=
PLAYORDER=
